<svg width="8" height="8" version="1.1" viewBox="0 0 8 8" xmlns="http://www.w3.org/2000/svg">
 <path d="m8 4a4 4 0 0 1-4 4 4 4 0 0 1-4-4 4 4 0 0 1 4-4 4 4 0 0 1 4 4z" fill="#ff0"/>
 <text transform="translate(-3.7061)" x="4" y="5" fill="#ffffff" font-family="'Libre Baskerville'" font-size="3px" font-weight="bold" text-anchor="middle" lengthAdjust="spacingAndGlyphs" textLength="7.1999998"/>
 <path d="m2.4249 4.164q0.022667 0.042667 0.041333 0.089333 0.02 0.045333 0.038667 0.092 0.018667-0.049333 0.038667-0.094667 0.02-0.046667 0.042667-0.089333l0.56933-1.068q0.010667-0.02 0.022667-0.032t0.025333-0.017333q0.014667-0.00533 0.032-0.00667 0.017333-0.00133 0.041333-0.00133h0.27067v1.928h-0.316v-1.2453q0-0.034667 0.00133-0.076 0.00267-0.041333 0.00667-0.084l-0.58267 1.0933q-0.041333 0.078667-0.12667 0.078667h-0.050667q-0.085333 0-0.12667-0.078667l-0.58933-1.0973q4e-3 0.044 0.00667 0.086667 0.00267 0.041333 0.00267 0.077333v1.2453h-0.316v-1.928h0.27067q0.024 0 0.041333 0.00133t0.030667 0.00667q0.014667 0.00533 0.025333 0.017333 0.012 0.012 0.022667 0.032l0.57733 1.0707z"/>
 <path d="m3.7858 3.036h0.3q0.046667 0 0.077333 0.022667 0.032 0.021333 0.042667 0.058667l0.328 1.1533q0.010667 0.042667 0.02 0.093333 0.010667 0.049333 0.021333 0.10533 0.010667-0.056 0.022667-0.10533 0.013333-0.050667 0.028-0.093333l0.37867-1.1533q0.010667-0.030667 0.041333-0.056 0.032-0.025333 0.077333-0.025333h0.10533q0.046667 0 0.076 0.022667t0.044 0.058667l0.37733 1.1533q0.028 0.082667 0.050667 0.19067 0.017333-0.10533 0.038667-0.19067l0.328-1.1533q8e-3 -0.033333 0.04-0.057333 0.033333-0.024 0.078667-0.024h0.28133l-0.59867 1.928h-0.324l-0.42133-1.3173q-0.0093334-0.025333-0.017333-0.054667-8e-3 -0.029333-0.016-0.061333-0.00667 0.032-0.016 0.061333-8e-3 0.029333-0.016 0.054667l-0.42533 1.3173h-0.32533z"/>
</svg>
