<svg width="7.9787" height="7.9787" version="1.1" viewBox="0 0 7.9787 7.9787" xmlns="http://www.w3.org/2000/svg">
 <defs>
  <clipPath id="clipPath406">
   <path d="m40 22c0 9.9411-8.0589 18-18 18s-18-8.0589-18-18 8.0589-18 18-18 18 8.0589 18 18" clip-rule="evenodd"/>
  </clipPath>
  <clipPath>
   <path d="m0 0h44v44h-44z" clip-rule="evenodd"/>
  </clipPath>
  <clipPath id="clipPath406-4">
   <path d="m40 22c0 9.9411-8.0589 18-18 18s-18-8.0589-18-18 8.0589-18 18-18 18 8.0589 18 18" clip-rule="evenodd"/>
  </clipPath>
  <clipPath id="clipPath414-0">
   <path d="m0 0h44v44h-44z" clip-rule="evenodd"/>
  </clipPath>
 </defs>
 <g transform="matrix(.44068 0 0 -.58004 -4.3646 23.676)">
  <g clip-path="url(#clipPath406)"></g>
 </g>
 <g transform="matrix(1.3333 0 0 -1.3333 -27.424 34.853)">
  <g transform="matrix(.16622 0 0 .16622 19.903 19.491)" clip-path="url(#clipPath406-4)">
   <g clip-path="url(#clipPath414-0)">
    <g>
     <path d="m0 22h44v22h-44z" fill="#fefe00" fill-rule="evenodd"/>
     <path d="m0 0h44v22h-44z" fill="#fefe00" fill-rule="evenodd"/>
     <path d="m16.555 19.683 2.079 5.247h2.628v-0.36q-0.297 0-0.486-0.063-0.18-0.054-0.279-0.207t-0.135-0.423q-0.027-0.261-0.027-0.666v-3.492q0-0.45 0.036-0.711t0.144-0.405 0.306-0.189q0.207-0.045 0.54-0.054v-0.36h-3.384v0.36q0.333 9e-3 0.531 0.054 0.207 0.054 0.315 0.189 0.117 0.135 0.153 0.378 0.036 0.252 0.036 0.675v4.212h-0.045l-2.421-5.958h-0.666l-2.502 5.958h-0.036v-4.149q0-0.45 0.036-0.711t0.144-0.405 0.306-0.189q0.207-0.045 0.54-0.054v-0.36h-2.772v0.36q0.333 9e-3 0.54 0.054 0.207 0.054 0.315 0.189 0.117 0.135 0.153 0.378 0.036 0.252 0.036 0.675v3.618q0 0.378-0.036 0.63t-0.135 0.396q-0.099 0.153-0.288 0.207-0.18 0.063-0.486 0.063v0.36h2.727l2.097-5.247z"/>
     <path d="m29.614 19.746 1.215 3.474q0.216 0.603 0.216 0.9 0 0.279-0.198 0.36-0.189 0.09-0.594 0.09v0.36h2.556v-0.36q-0.342 0-0.621-0.171-0.27-0.162-0.414-0.558l-2.169-5.931h-0.801l-1.566 4.752-1.782-4.752h-0.747l-1.908 5.256q-0.171 0.459-0.315 0.738t-0.306 0.423-0.351 0.189-0.45 0.045v0.369h3.402v-0.369q-0.459 0-0.63-0.09-0.171-0.081-0.171-0.279 0-0.072 9e-3 -0.144 9e-3 -0.063 0.036-0.153 0.027-0.081 0.063-0.207 0.045-0.126 0.117-0.315l1.26-3.627 1.458 3.978q-0.09 0.243-0.18 0.396t-0.216 0.243q-0.117 0.09-0.27 0.126-0.153 0.045-0.369 0.072v0.369h3.177v-0.369q-0.378 0-0.558-0.099-0.18-0.09-0.18-0.36 0-0.135 0.036-0.315 0.045-0.18 0.117-0.414z"/>
    </g>
    <path d="m40 22c0 9.9411-8.0589 18-18 18s-18-8.0589-18-18 8.0589-18 18-18 18 8.0589 18 18" fill="none" stroke="#000" stroke-miterlimit="10" stroke-width=".5"/>
   </g>
  </g>
 </g>
</svg>
