<svg width="8" height="8" version="1.1" viewBox="0 0 8 8" xmlns="http://www.w3.org/2000/svg">
 <circle cx="4" cy="4" r="4" fill="#00f"/>
 <text transform="translate(-4.0323)" x="4" y="5" fill="#ffffff" font-family="'Libre Baskerville'" font-size="3px" font-weight="bold" text-anchor="middle" lengthAdjust="spacingAndGlyphs" textLength="7.1999998"/>
 <g fill="#fff" aria-label="PKP">
  <path d="m2.062 4.2853v0.67867h-0.35867v-1.928h0.62667q0.19333 0 0.33467 0.045333t0.23333 0.12667q0.092 0.081333 0.136 0.19467 0.045333 0.11333 0.045333 0.248 0 0.14-0.046667 0.25733-0.046667 0.116-0.14 0.2t-0.23467 0.13067q-0.14 0.046667-0.328 0.046667zm0-0.28h0.268q0.098667 0 0.172-0.024 0.073333-0.025333 0.12133-0.070667 0.049333-0.046667 0.073333-0.112 0.024-0.066667 0.024-0.148 0-0.077333-0.024-0.14-0.024-0.062667-0.072-0.10667-0.048-0.044-0.12133-0.066667-0.073333-0.024-0.17333-0.024h-0.268z" style=""/>
  <path d="m3.713 3.844h0.084q0.050667 0 0.084-0.013333 0.033333-0.014667 0.057333-0.045333l0.532-0.67333q0.033333-0.042667 0.069333-0.058667 0.037333-0.017333 0.093333-0.017333h0.30933l-0.64933 0.80133q-0.057333 0.073333-0.11867 0.104 0.044 0.016 0.078667 0.045333 0.036 0.028 0.068 0.074667l0.66933 0.90267h-0.316q-0.064 0-0.096-0.017333-0.030667-0.018667-0.052-0.053333l-0.54533-0.712q-0.025333-0.036-0.058667-0.050667-0.033333-0.014667-0.096-0.014667h-0.11333v0.848h-0.35867v-1.928h0.35867z" style=""/>
  <path d="m5.5411 4.2853v0.67867h-0.35867v-1.928h0.62667q0.19333 0 0.33467 0.045333 0.14133 0.045333 0.23333 0.12667 0.092 0.081333 0.136 0.19467 0.045333 0.11333 0.045333 0.248 0 0.14-0.046667 0.25733-0.046667 0.116-0.14 0.2t-0.23467 0.13067q-0.14 0.046667-0.328 0.046667zm0-0.28h0.268q0.098667 0 0.172-0.024 0.073333-0.025333 0.12133-0.070667 0.049333-0.046667 0.073333-0.112 0.024-0.066667 0.024-0.148 0-0.077333-0.024-0.14-0.024-0.062667-0.072-0.10667-0.048-0.044-0.12133-0.066667-0.073333-0.024-0.17333-0.024h-0.268z" style=""/>
 </g>
</svg>
