<svg width="12.7mm" height="12.7mm" version="1.1" viewBox="0 0 12.7 12.7" xmlns="http://www.w3.org/2000/svg">
 <defs>
  <clipPath id="clipPath188">
   <path d="m40 22c0 9.9411-8.0589 18-18 18s-18-8.0589-18-18 8.0589-18 18-18 18 8.0589 18 18" clip-rule="evenodd"/>
  </clipPath>
  <clipPath id="clipPath196">
   <path d="m0 0h44v44h-44z" clip-rule="evenodd"/>
  </clipPath>
 </defs>
 <g transform="translate(-67.733 -88.055)">
  <g transform="matrix(.35278 0 0 -.35278 66.322 102.17)">
   <g clip-path="url(#clipPath188)">
    <g clip-path="url(#clipPath196)">
     <path d="m46 22c0 13.255-10.745 24-24 24-13.255 0-24-10.745-24-24 0-13.255 10.745-24 24-24 13.255 0 24 10.745 24 24" fill="#ff7e00" fill-rule="evenodd"/>
     <path d="m35 22c0 7.1797-5.8203 13-13 13s-13-5.8203-13-13 5.8203-13 13-13 13 5.8203 13 13" fill="#fff" fill-rule="evenodd"/>
     <path d="m31 22c0 4.9706-4.0294 9-9 9s-9-4.0294-9-9 4.0294-9 9-9 9 4.0294 9 9" fill="#ff7e00" fill-rule="evenodd"/>
     <g transform="translate(0,18)">
      <path d="m0 0h44v8h-44z" fill="#fff" fill-rule="evenodd" stroke="#000" stroke-miterlimit="10" stroke-width=".5"/>
     </g>
     <g>
      <path d="m18.42 23.3h-0.344q-0.024 0.392-0.12 0.648-0.088 0.264-0.256 0.416-0.168 0.16-0.408 0.216-0.24 0.064-0.56 0.064-0.312 0-0.504-0.016-0.184-8e-3 -0.288-0.04-0.096-0.024-0.128-0.072t-0.032-0.12v-4.192q0-0.256 0.032-0.44 0.04-0.184 0.152-0.304 0.112-0.112 0.328-0.176 0.216-0.056 0.568-0.064v-0.32h-3.352v0.32q0.36 8e-3 0.576 0.064 0.216 0.064 0.328 0.176 0.12 0.12 0.152 0.304 0.04 0.184 0.04 0.44v4.192q0 0.072-0.032 0.12-0.024 0.048-0.112 0.072-0.088 0.032-0.256 0.04-0.16 0.016-0.424 0.016-0.288 0-0.552-0.032-0.264-0.024-0.464-0.16-0.2-0.128-0.328-0.4-0.12-0.264-0.128-0.752h-0.312l0.08 1.76h6.264z"/>
      <path d="m20.812 20.188q0-0.304 0.024-0.488 0.032-0.184 0.112-0.288t0.224-0.144q0.152-0.04 0.4-0.048v-0.32h-2.776v0.32q0.264 8e-3 0.432 0.048t0.256 0.136 0.12 0.272 0.032 0.456v3.696q0 0.272-0.032 0.448-0.024 0.176-0.104 0.272t-0.232 0.136q-0.144 0.04-0.384 0.056v0.32h2.76v-0.32q-0.272-8e-3 -0.44-0.048-0.16-0.04-0.248-0.144t-0.12-0.288q-0.024-0.184-0.024-0.488v-1.776l2.072 2.224q0.184 0.2 0.184 0.336 0 0.088-0.12 0.136-0.112 0.048-0.424 0.048v0.32h2.184v-0.312q-0.176-8e-3 -0.312-0.032-0.128-0.024-0.264-0.104-0.128-0.08-0.296-0.232-0.16-0.144-0.4-0.392l-1.424-1.488 2.352-2.864q0.168-0.208 0.368-0.304 0.208-0.096 0.528-0.112v-0.32h-2.96v0.32q0.328 8e-3 0.472 0.056t0.144 0.16q0 0.04-0.016 0.072-8e-3 0.04-0.04 0.088-0.024 0.056-0.08 0.128-0.056 0.08-0.152 0.192l-1.416 1.744-0.4-0.416z"/>
      <path d="m28.596 18.82q-0.72 0-1.304 0.208-0.576 0.216-0.984 0.608-0.4 0.4-0.624 0.96-0.216 0.568-0.216 1.272 0 0.728 0.232 1.328 0.24 0.608 0.664 1.04t1.016 0.664q0.592 0.24 1.312 0.24 0.496 0 0.944-0.136t0.968-0.44l0.152 0.496h0.288v-2.024h-0.4q-0.16 0.752-0.648 1.168-0.48 0.416-1.208 0.416-0.92 0-1.432-0.712-0.504-0.704-0.504-1.976 0-1.248 0.496-1.912t1.44-0.664q0.68 0 1.056 0.344 0.384 0.352 0.384 0.968 0 0.368-0.192 0.536-0.192 0.176-0.648 0.216v0.32h2.592v-0.32q-0.392 0-0.544-0.176-0.152-0.168-0.152-0.616v-1.064q-0.176 0-0.296-0.016-0.12-8e-3 -0.24-0.048-0.112-0.032-0.256-0.112t-0.36-0.208q-0.616-0.36-1.536-0.36z"/>
     </g>
     <path d="m40 22c0 9.9411-8.0589 18-18 18s-18-8.0589-18-18 8.0589-18 18-18 18 8.0589 18 18" fill="none" stroke="#000" stroke-miterlimit="10" stroke-width=".5"/>
    </g>
   </g>
  </g>
 </g>
</svg>
